<svg width="61" height="44" viewBox="0 0 61 44" fill="none" xmlns="http://www.w3.org/2000/svg">
<path d="M42.5562 14.9882L41.933 32.3999L42.4604 41.9924L36.8033 43L22.5167 23.5731V32.3999L23.1879 42.8791H17.1952L17.7705 33.085L17.1952 15.1898L22.9482 14.9479L37.1868 34.6569L36.7074 15.5928L42.5562 14.9882Z" fill="#98317F"/>
<path d="M15.3713 32.7592C15.3713 32.7592 15.8203 33.1375 16.048 33.5544C16.2865 33.991 15.866 34.406 15.4243 34.7109L15.3713 34.7474L11.9139 35.4433L6.5837 34.7474C6.5837 34.7474 7.12755 32.0836 5.43122 31.6657C4.74242 31.496 4.26217 31.8032 3.55845 31.6657C2.37123 31.4338 1.8034 30.9368 1.2535 30.1746C0.249931 28.7836 2.55003 26.2976 2.55003 26.2976H5.43122C5.43122 26.2976 4.83114 24.7464 5.43122 23.9117C6.13886 22.9275 8.88865 22.4206 8.88865 22.4206V14.3684C8.88865 14.3684 8.80688 13.2755 8.88865 12.579C9.4274 7.98976 13.3435 5.44316 19.1169 3.13508C25.6061 0.540839 31.2702 0.395201 38.2768 2.24039C45.716 4.19949 49.7254 7.33579 52.1065 12.579C53.772 16.2465 52.1065 22.4206 52.1065 22.4206C52.1065 22.4206 52.7246 22.3843 53.1149 22.4206C55.6115 22.6526 55.708 26.4964 55.708 26.4964C55.708 26.4964 56.3174 26.0014 56.8605 25.8999C57.9797 25.6909 58.6553 26.4031 59.2911 27.0735L59.3095 27.0929C60.2647 28.0998 60.195 29.1377 59.3095 30.1746C58.4767 31.1497 56.7738 30.8054 55.708 31.6657C54.5055 32.6364 55.4612 33.8652 54.1233 34.7474C52.4717 35.8366 50.6071 35.731 48.361 35.4433C46.777 35.2404 44.6154 34.2504 44.6154 34.2504L45.6238 32.7592V24.6076L44.6154 23.9117L45.6238 23.3153L49.0813 22.4206C49.0813 22.4206 50.2938 17.6948 49.0813 14.8654C48.8441 14.312 48.361 13.4737 48.361 13.4737C48.361 13.4737 46.2633 9.81811 43.751 8.10557C39.5107 5.21499 35.2994 4.43786 29.3451 4.62622C24.0749 4.79295 20.5713 5.55135 16.8119 8.10557C13.942 10.0555 12.9611 11.6847 11.9139 14.3684C10.7291 17.4048 11.9139 22.4206 11.9139 22.4206H13.2104C13.2104 22.4206 15.8679 22.478 16.0916 23.3153C16.3381 24.2375 15.3713 25.1349 15.3713 26.08V32.7592Z" fill="#4C1A3F"/>
<path d="M42.5562 14.9882L41.933 32.3999L42.4604 41.9924L36.8033 43L22.5167 23.5731V32.3999L23.1879 42.8791H17.1952L17.7705 33.085L17.1952 15.1898L22.9482 14.9479L37.1868 34.6569L36.7074 15.5928L42.5562 14.9882Z" stroke="white"/>
<path d="M15.3713 32.7592C15.3713 32.7592 15.8203 33.1375 16.048 33.5544C16.2865 33.991 15.866 34.406 15.4243 34.7109L15.3713 34.7474L11.9139 35.4433L6.5837 34.7474C6.5837 34.7474 7.12755 32.0836 5.43122 31.6657C4.74242 31.496 4.26217 31.8032 3.55845 31.6657C2.37123 31.4338 1.8034 30.9368 1.2535 30.1746C0.249931 28.7836 2.55003 26.2976 2.55003 26.2976H5.43122C5.43122 26.2976 4.83114 24.7464 5.43122 23.9117C6.13886 22.9275 8.88865 22.4206 8.88865 22.4206V14.3684C8.88865 14.3684 8.80688 13.2755 8.88865 12.579C9.4274 7.98976 13.3435 5.44316 19.1169 3.13508C25.6061 0.540839 31.2702 0.395201 38.2768 2.24039C45.716 4.19949 49.7254 7.33579 52.1065 12.579C53.772 16.2465 52.1065 22.4206 52.1065 22.4206C52.1065 22.4206 52.7246 22.3843 53.1149 22.4206C55.6115 22.6526 55.708 26.4964 55.708 26.4964C55.708 26.4964 56.3174 26.0014 56.8605 25.8999C57.9797 25.6909 58.6553 26.4031 59.2911 27.0735L59.3095 27.0929C60.2647 28.0998 60.195 29.1377 59.3095 30.1746C58.4767 31.1497 56.7738 30.8054 55.708 31.6657C54.5055 32.6364 55.4612 33.8652 54.1233 34.7474C52.4717 35.8366 50.6071 35.731 48.361 35.4433C46.777 35.2404 44.6154 34.2504 44.6154 34.2504L45.6238 32.7592V24.6076L44.6154 23.9117L45.6238 23.3153L49.0813 22.4206C49.0813 22.4206 50.2938 17.6948 49.0813 14.8654C48.8441 14.312 48.361 13.4737 48.361 13.4737C48.361 13.4737 46.2633 9.81811 43.751 8.10557C39.5107 5.21499 35.2994 4.43786 29.3451 4.62622C24.0749 4.79295 20.5713 5.55135 16.8119 8.10557C13.942 10.0555 12.9611 11.6847 11.9139 14.3684C10.7291 17.4048 11.9139 22.4206 11.9139 22.4206H13.2104C13.2104 22.4206 15.8679 22.478 16.0916 23.3153C16.3381 24.2375 15.3713 25.1349 15.3713 26.08V32.7592Z" stroke="white"/>
</svg>
